<?xml version="1.0" encoding="UTF-8" standalone="no"?>
<!-- Created with Inkscape (http://www.inkscape.org/) -->

<svg
   width="155.75481mm"
   height="127.34872mm"
   viewBox="0 0 155.75481 127.34872"
   version="1.1"
   id="svg1346"
   inkscape:version="1.1.2 (0a00cf5339, 2022-02-04)"
   sodipodi:docname="places_inksape.svg"
   xmlns:inkscape="http://www.inkscape.org/namespaces/inkscape"
   xmlns:sodipodi="http://sodipodi.sourceforge.net/DTD/sodipodi-0.dtd"
   xmlns="http://www.w3.org/2000/svg"
   xmlns:svg="http://www.w3.org/2000/svg">
  <sodipodi:namedview
     id="namedview1348"
     pagecolor="#ffffff"
     bordercolor="#111111"
     borderopacity="1"
     inkscape:pageshadow="0"
     inkscape:pageopacity="0"
     inkscape:pagecheckerboard="1"
     inkscape:document-units="mm"
     showgrid="false"
     inkscape:zoom="1.0377901"
     inkscape:cx="280.88533"
     inkscape:cy="208.61638"
     inkscape:window-width="954"
     inkscape:window-height="978"
     inkscape:window-x="4"
     inkscape:window-y="62"
     inkscape:window-maximized="0"
     inkscape:current-layer="layer1" />
  <defs
     id="defs1343" />
  <g
     inkscape:label="Layer 1"
     inkscape:groupmode="layer"
     id="layer1"
     transform="translate(-93.623096,-96.810915)">
    <path
       style="fill:none;stroke:#000000;stroke-width:0.264583px;stroke-linecap:butt;stroke-linejoin:miter;stroke-opacity:1"
       d="m 177.62005,184.76944 c 0,0 -3.27321,-3.89311 -6.56452,-2.49979 -3.29131,1.39331 -5.80907,4.58531 -7.41156,4.58531 -1.6025,0 -3.84184,0.31995 -5.49268,-3.26268 -1.65085,-3.58262 -4.11751,-8.71964 0.57737,-15.83928 4.69488,-7.11963 7.90167,-21.42322 6.88811,-27.82758 -1.01355,-6.40437 -2.17386,-17.4936 -6.97214,-24.74187 -4.79827,-7.24826 -7.54014,-12.17494 -6.42714,-14.23061 1.11299,-2.055662 -0.13796,-3.041637 -0.63379,-3.121841 -0.49582,-0.0802 -6.21123,-3.364125 -9.41054,3.230151 -3.19932,6.59427 -2.82842,6.58433 -4.97164,7.03647 -2.14321,0.45214 -5.29088,-1.16735 -6.09319,-2.60561 -0.80232,-1.43825 -0.76896,-3.93617 1.08909,-4.66394 1.85805,-0.72776 6.68972,-9.145044 50.06017,23.83921 43.37044,32.98425 25.46836,43.60272 25.46836,43.60272 v 0 c -12.13642,9.67703 -19.29236,17.21069 -19.29236,17.21069 0,0 -14.4041,7.43978 -16.69473,8.31976 -2.29063,0.87998 -12.92291,6.94732 -15.75301,4.18242 -2.8301,-2.7649 -2.57317,-3.27472 -2.70693,-4.22183 -0.13374,-0.94711 0.47738,-11.01372 -1.77388,-16.18322 -2.25126,-5.1695 -6.41745,-16.0359 -6.21012,-21.92967 0.20733,-5.89378 0.0671,-16.9085 4.71212,-20.94867 4.645,-4.04017 19.924,-13.16767 28.72422,12.07155 8.80022,25.23922 -1.03811,38.37603 -1.39977,38.28217 -0.48662,0.23458 -0.78809,0.72276 -1.18185,1.08452 0,0 -1.03174,0.72771 -0.13639,2.27129 0.89535,1.54358 2.78564,0.41831 3.44924,-0.15906 0.66359,-0.57737 7.96558,-5.4437 8.81031,-11.43017 0.84473,-5.98648 5.65742,-12.76235 10.48974,-14.80827 4.83232,-2.04592 12.09845,-1.35477 12.95863,-5.67672 0.86018,-4.32195 1.37067,-7.63171 -1.16016,-10.76032 -2.53083,-3.12862 -3.28936,-5.26327 -15.00002,-6.66702 -11.71066,-1.40374 -11.76703,4.48401 -11.76703,4.48401 0,0 -1.34736,14.90271 -13.34792,17.447 -12.00056,2.54429 -20.52441,-4.73108 -20.52441,-4.73108 0,0 -10.80728,-6.90952 -17.27956,-14.67023 -6.47229,-7.76072 -33.725622,-18.74419 -36.966355,25.41843 -3.240735,44.16263 -1.906952,57.60001 0.521931,57.16177 2.428883,-0.43823 2.706833,0.017 8.096984,-4.44977 5.39014,-4.46675 23.11393,-28.19593 46.82523,-20.88575 23.7113,7.31018 37.93442,2.12573 44.95479,-17.44812 7.02038,-19.57386 13.08605,-38.82059 32.23303,-31.98519 19.14697,6.83539 19.40802,5.61916 20.19304,4.85682 l 0.78502,-0.76234"
       id="path1322-8"
       sodipodi:nodetypes="cssssssssssssscscsssssssccssssssscscssssssssc" />
  </g>
</svg>
