<?xml version="1.0" standalone="no"?>
<!DOCTYPE svg PUBLIC "-//W3C//DTD SVG 20010904//EN"
 "http://www.w3.org/TR/2001/REC-SVG-20010904/DTD/svg10.dtd">
<svg version="1.0" xmlns="http://www.w3.org/2000/svg"
 width="700.000000pt" height="700.000000pt" viewBox="0 0 700.000000 700.000000"
 preserveAspectRatio="xMidYMid meet">
<metadata>
Created by potrace 1.14, written by Peter Selinger 2001-2017
</metadata>
<g transform="translate(0.000000,700.000000) scale(0.100000,-0.100000)"
fill="#000000" stroke="none">
<path d="M2710 5723 c0 -250 -3 -329 -16 -394 l-17 -81 179 -179 180 -180 624
262 c344 144 628 264 633 268 4 4 6 144 5 312 l-3 304 -199 -298 -199 -297
-198 296 -197 296 -198 -296 -197 -296 -199 297 -198 298 0 -312z"/>
<path d="M3901 4726 l-454 -454 145 -349 c80 -191 144 -349 143 -350 -1 -2
-159 62 -351 141 l-349 144 -272 -272 -273 -271 0 385 0 385 -350 144 c-193
79 -348 146 -346 148 2 3 159 68 348 147 l343 142 3 172 2 172 -54 -30 c-30
-17 -103 -47 -161 -66 -245 -79 -491 -222 -684 -396 l-53 -48 43 -18 c24 -10
74 -31 112 -47 37 -15 66 -30 64 -31 -2 -2 -106 -46 -231 -98 -125 -52 -229
-96 -230 -98 -2 -2 -23 -37 -49 -78 -92 -150 -183 -374 -208 -512 l-11 -63 95
-225 c53 -124 94 -226 92 -228 -1 -1 -52 18 -113 43 -61 25 -116 45 -121 45
-16 0 -14 -269 4 -430 15 -140 50 -328 83 -440 34 -116 104 -280 120 -280 4 0
82 75 174 167 l168 168 -145 349 c-80 192 -144 350 -143 352 2 1 160 -63 353
-142 l350 -144 267 267 268 268 2 -495 3 -495 495 -3 495 -2 -269 -269 -268
-268 145 -349 c80 -192 144 -350 143 -352 -2 -1 -160 63 -352 142 l-349 144
-128 -126 c-70 -70 -126 -131 -124 -137 5 -16 207 -64 336 -80 107 -13 650
-39 658 -31 2 2 -1 16 -7 31 -6 15 -9 29 -8 31 2 1 39 -13 83 -33 l80 -35 340
7 c187 4 389 10 449 14 l108 6 114 275 c62 151 117 283 122 293 6 14 32 -41
107 -223 54 -133 103 -243 107 -246 11 -7 169 60 268 113 344 184 631 479 796
816 l28 57 -109 110 -110 110 152 0 151 0 21 88 c81 346 94 725 35 1052 -52
287 -131 492 -277 718 -33 51 -61 91 -62 90 -2 -2 -134 -318 -294 -703 l-291
-700 272 -265 271 -265 -382 -5 -382 -5 -147 -352 c-81 -193 -148 -349 -150
-345 -1 4 -66 162 -145 352 l-143 345 -384 3 -385 2 272 273 271 272 -141 343
c-77 188 -138 345 -135 347 2 3 151 -56 329 -131 178 -75 333 -140 345 -144
18 -7 93 64 574 545 l553 553 -69 72 c-82 86 -199 182 -309 254 -153 100 -251
147 -472 226 -72 26 -156 64 -188 85 -50 33 -139 129 -152 162 -3 7 -8 13 -12
13 -3 0 -210 -204 -460 -454z"/>
<path d="M1342 1754 c90 -127 242 -282 372 -379 78 -59 244 -165 258 -165 4 0
8 133 8 295 l0 295 -336 0 -335 0 33 -46z"/>
</g>
</svg>
