<?xml version="1.0" encoding="UTF-8" standalone="no"?>
<!--********* Copyright (c) 2024 Pareto Softare, LLC DBA Simplemaps.com ***************************************
************* Free for Commercial Use, full terms at  https://simplemaps.com/resources/svg-license ************
************* Attribution is appreciated! https://simplemaps.com *******************************************-->

<svg
   baseprofile="tiny"
   fill="#6f9c76"
   height="507.5"
   stroke="#ffffff"
   stroke-linecap="round"
   stroke-linejoin="round"
   stroke-width="0.5"
   version="1.2"
   viewbox="0 0 1000 890"
   width="731.5"
   id="svg11"
   xmlns="http://www.w3.org/2000/svg"
   xmlns:svg="http://www.w3.org/2000/svg">
  <defs
     id="defs15" />
  <g
     id="features"
     transform="translate(-223.25,-40.250002)">
    <path
       d="m 706.9,63.2 -0.1,0.6 -0.1,1.2 0.1,0.7 1.1,0.5 0.5,0.7 0.2,1.1 0.1,0.2 0.1,0.3 0.4,-0.1 0.5,-0.3 0.8,-0.1 0.9,-0.3 h 0.3 l 0.8,0.4 0.4,0.3 v 0.2 l -0.1,0.4 v 0.5 l 0.3,0.9 0.2,0.3 0.5,0.2 0.5,0.1 0.5,-0.1 0.4,-0.3 0.2,-0.4 0.4,-1 0.6,-0.4 0.8,0.1 1.2,0.3 1.7,0.9 h 0.5 l 0.4,-0.2 h 0.5 l 1.1,1.2 0.2,2 -0.4,2.2 -0.7,1.8 -0.5,0.7 -1.6,1.8 -0.4,0.4 0.5,1.2 0.8,0.9 0.9,0.5 1,0.3 1.1,0.1 0.7,-0.3 0.3,-0.7 0.1,-1.5 0.3,-1.1 0.7,-0.8 0.9,-0.3 0.9,0.2 -0.9,0.8 -0.3,0.7 0.2,0.7 0.7,0.8 0.7,0.5 2.4,0.4 1.4,0.8 1.3,1.1 1.5,-0.2 0.4,0.1 0.6,0.5 0.3,0.2 1.4,0.2 0.7,0.2 0.5,0.6 1.4,1 1.5,0.5 3.3,0.3 3.1,-0.6 1.1,0.4 0.5,1.6 0.2,0.4 v 0.4 l -0.1,0.2 -0.1,0.3 0.2,0.5 0.4,0.4 0.4,0.1 0.4,-0.1 0.4,0.1 1.4,0.9 0.8,0.6 1.5,2.1 0.1,0.2 -0.1,0.2 v 0.2 l 0.3,0.2 h 0.6 0.2 l 0.2,0.4 v 0.3 0.3 l 0.4,0.3 h 0.3 l 0.7,-0.5 0.3,-0.1 0.1,-1.3 h 1 l 2.2,1 1.2,-0.1 1,-0.6 1.9,-1.5 0.4,0.3 0.3,-0.1 0.3,-0.4 0.2,-0.5 0.6,0.5 0.1,0.1 2.4,1.4 0.4,1.1 1.1,0.1 1.2,-0.3 0.7,-0.3 -0.1,0.9 0.3,1 0.5,0.8 0.6,0.5 0.3,0.3 v 0.4 l 0.1,0.4 0.5,0.2 0.5,0.1 0.3,0.3 0.1,0.2 0.3,0.3 1.6,0.6 1.4,-0.1 3.1,-1.2 2.5,-0.3 0.7,-0.6 0.7,-0.1 2.1,0.6 0.7,0.3 0.8,1.6 0.7,0.7 0.6,-0.1 1.1,-1.6 0.7,-0.7 0.8,-0.3 1.1,1 0.1,0.2 -0.1,0.2 0.1,0.2 0.2,0.2 0.8,0.2 0.8,-0.1 1.5,-0.4 0.7,0.3 5,-0.1 1.4,0.2 0.6,-0.2 0.2,-0.5 0.1,-0.1 0.1,-0.9 -0.3,-0.8 -0.5,-0.7 -0.6,-0.2 0.3,-0.5 0.1,-0.3 0.3,-0.2 -0.4,-0.6 0.6,-1.6 -0.1,-1.1 0.2,-0.8 0.9,-0.4 1.1,-0.1 0.7,0.1 1.4,0.6 0.7,0.1 0.8,-0.1 0.7,0.2 1.7,1 1.2,0.5 0.4,0.2 0.6,0.7 0.5,0.2 0.3,-0.2 0.4,-0.4 0.4,-0.1 0.4,0.1 0.6,0.6 0.3,0.2 3.5,0.2 0.8,0.3 0.8,0.6 0.3,0.8 0.4,0.9 0.4,0.7 0.7,0.5 0.4,0.1 1.4,-0.5 4.9,0.1 1,0.2 -0.2,0.8 0.2,0.2 h 0.4 l 0.3,0.2 0.7,1.3 0.8,1.1 0.7,1.9 0.6,0.7 -0.2,0.4 -0.2,0.5 -0.1,0.5 0.4,0.3 v 0.2 l -0.7,1.1 -0.1,0.7 0.9,-0.2 0.7,0.7 0.1,0.8 -0.8,0.6 -0.2,0.1 -0.7,0.3 1.2,1.8 v 0.7 l 0.4,0.4 2.5,0.3 0.3,-0.1 0.5,-0.2 0.2,-0.3 0.2,-0.4 0.2,-0.2 2.6,-0.3 1.3,-0.6 0.4,-1.5 0.2,-0.1 0.1,-0.1 h 0.1 l 0.1,0.2 0.5,0.2 h 0.5 l 0.4,-0.2 0.4,-0.5 0.1,0.1 0.1,0.1 v 0.1 0.2 l 0.8,0.3 2.5,0.4 0.8,0.3 2.3,1.6 0.9,0.2 0.8,0.1 0.6,0.2 0.6,0.9 0.5,2.1 0.4,0.8 0.8,0.7 0.5,0.4 h 0.5 l 1.1,-0.1 0.6,-0.1 0.5,-0.4 0.7,-0.7 0.9,-0.7 0.2,-0.3 0.3,-0.8 0.2,-0.3 0.7,-0.3 1.9,0.2 2.5,-0.8 1.2,-0.1 1.2,0.6 0.5,0.4 2.3,1.1 1.3,0.3 h 0.6 l 0.3,0.9 0.6,0.9 0.8,0.6 0.8,0.2 0.8,0.5 0.4,0.1 h 0.5 l 0.2,-0.3 0.4,-0.9 0.3,-0.2 0.8,-0.1 1.8,0.7 0.9,0.1 h 1.1 v -0.3 l -0.5,-0.5 -0.4,-1.1 0.3,-0.4 1.7,-1.4 0.7,-0.4 h 0.9 l 1.5,0.2 0.9,-0.1 0.6,-0.4 1.3,-1.2 0.6,-0.4 0.7,-0.1 0.6,0.1 0.7,-0.2 1.4,-1 1.3,0.5 0.6,-0.4 h 0.5 l 1.2,0.1 0.2,0.1 0.3,0.6 0.3,0.5 0.4,0.4 0.5,0.3 0.8,0.3 1,0.1 1.1,-0.1 1.7,-0.3 v 0.8 l -0.4,1.1 0.2,0.9 v 0.9 l 0.5,0.8 0.7,0.6 0.9,-0.2 h 0.9 l 0.6,0.7 h 0.2 l 0.5,-0.4 0.5,0.1 1,0.7 -1,1.9 -0.1,0.5 -0.2,0.8 -0.3,0.4 -0.3,0.3 -0.3,0.6 -0.7,-0.3 -1.5,0.3 -1.2,-0.5 -0.4,-0.6 -0.7,0.2 -0.9,0.9 -0.5,1.2 v 1.9 l -0.1,1.3 0.3,1 0.6,0.7 1.4,0.9 0.8,1 0.9,1.3 -0.1,0.7 -0.5,0.5 -0.2,0.8 0.3,0.8 0.2,1.1 v 0.4 l 0.2,0.3 0.7,0.6 0.3,0.4 -0.2,1.1 -1,1.7 -0.5,1.4 -0.7,0.7 -1.1,1.7 -1.3,-0.2 -1.6,1.2 -0.4,1.5 -1.1,0.6 -3.6,2.9 -0.8,1.2 -1.3,0.3 -0.9,0.2 -1.1,0.3 -0.4,0.1 -0.2,0.1 -0.6,0.6 -0.2,0.2 -0.1,0.4 -0.4,0.1 h -0.5 l -0.5,1.3 -5.1,2.1 -8.2,3.8 -0.8,0.9 -2.4,1.6 -3,1.3 -1.2,0.9 -1.1,1.5 -1.9,3.5 -1.2,1.6 -1.3,1.2 -2.8,1.6 -1.7,0.4 -2.7,0.3 -2.7,0.7 -0.9,0.5 -0.4,0.1 h -1.3 l -7.9,2.4 -3.5,0.3 -10.1,3.8 -2.9,0.6 -0.3,0.2 -0.7,1.3 -0.1,0.4 -0.2,0.3 -0.5,0.3 -0.9,-0.6 -0.3,-0.1 h -1.8 l -1.7,0.3 -1.6,0.7 -1,0.7 -4.6,4.5 -2.2,3 -4.4,4.5 -0.8,1.5 1.1,0.7 1.1,0.4 h 0.5 l 0.2,-0.3 -0.1,-0.4 -0.6,-0.4 0.7,0.1 0.6,0.3 0.4,0.4 1,1.2 1,0.9 h 0.5 l 0.8,0.2 v 1.1 l -0.6,1.2 -0.4,0.5 -2.6,0.8 -1.1,1 -2,3.1 -1.2,1 -1.2,0.4 -1.3,0.2 -0.9,-1.5 1.9,-0.3 0.9,0.7 1.4,-0.8 1.4,-2.4 -0.8,-0.1 -1.2,0.1 -3.3,1.1 -0.8,0.5 -0.7,0.8 -0.6,0.9 -1.3,3.1 -0.6,1.6 -0.7,1 -0.7,0.8 -0.6,0.9 -0.2,1.3 -1.1,1.1 -2.8,5.5 -0.5,0.5 -1,0.9 -0.6,0.6 -1.4,1.9 -2.4,2.1 -2.4,4.9 -1.1,1.2 -2.1,1.2 -1,1.6 -1.8,3.7 -1,1.6 -2.5,2.8 -4.2,7 -0.2,0.6 -0.1,1.2 -0.3,0.9 -0.4,0.7 -1,1 -0.6,0.8 -0.4,0.9 -0.3,0.9 -0.2,0.7 -1.3,1.8 -0.4,0.9 -0.3,1.9 0.1,2.6 0.3,2.2 0.8,3.5 2.5,5.6 0.4,0.8 0.5,0.9 -0.5,0.4 -0.5,0.4 0.2,1 0.4,1.9 0.7,1.7 1,1.9 1.1,2.1 1.5,2.6 0.6,0.8 1.5,1.2 1.5,1.6 0.8,0.6 1.1,0.3 1.9,0.2 1.9,0.6 1.8,1 1.2,1.4 -0.1,0.1 -0.5,0.3 0.5,0.2 0.3,0.3 1.1,0.9 0.4,-0.1 0.3,0.6 v 0.9 l -0.3,0.4 h -0.7 l -0.7,0.2 -0.6,0.3 -0.6,0.5 -0.5,1.1 v 0.2 l -0.2,0.1 -0.8,0.1 -0.3,0.1 -0.5,0.6 -0.5,0.2 -0.4,0.4 -0.4,0.8 0.3,0.7 -0.8,-0.2 -0.6,0.1 -0.5,0.3 -0.7,0.1 -1.3,0.1 -0.5,0.1 -0.6,0.5 -0.5,0.9 v 0.7 l 0.1,0.7 -0.3,0.8 -0.6,0.6 -0.6,0.3 H 774 l -1.8,0.4 -1,0.4 -1.3,0.9 -3.9,1.6 -0.6,0.5 -0.2,0.6 -0.3,0.2 -1.5,1.6 -0.5,0.8 -0.1,1 v 0.5 l -0.2,0.2 -1.3,0.1 -0.5,0.2 -0.5,0.4 -0.1,0.8 -1.5,-0.1 -0.3,2.1 0.6,4.7 -0.5,0.6 -0.7,0.1 -1.4,-0.1 -0.9,0.3 -0.8,0.6 -0.6,0.8 -0.4,0.8 -0.2,0.7 -0.2,0.8 -0.1,2.2 -0.2,3.4 -0.1,0.9 -0.4,0.5 -1,0.4 -0.8,0.8 -0.4,0.7 -1.6,4.1 -0.1,0.8 v 0.1 l 0.2,2 -0.2,0.5 -1.1,-1.3 -1,2.7 -0.5,0.4 -0.9,0.3 -0.3,0.7 0.1,0.9 1.3,2.4 0.4,0.5 1.3,0.9 1,0.4 0.8,0.1 0.3,-0.6 0.7,0.5 0.3,0.5 -0.1,0.7 -0.6,0.4 -0.4,0.4 -0.3,0.2 h -0.4 l -0.3,-0.3 -0.4,0.3 -1.1,0.4 -0.7,0.1 -1.1,0.7 H 744 l -0.5,0.1 -0.5,0.2 -1,0.7 -0.4,-0.3 -1.6,-0.7 -1.3,-0.3 -2.6,-0.1 -0.7,0.1 -0.6,0.3 -0.5,0.3 -0.2,0.5 0.1,0.5 0.5,0.9 -1.3,-0.3 -1.2,-0.3 -0.3,-0.6 -0.2,-0.4 -0.8,-0.1 -1.2,-0.5 -0.6,-0.2 -0.6,0.6 -0.1,0.5 h -1.2 l -1.3,-0.2 -1.2,0.6 -0.7,0.4 -1.8,1.8 -0.6,0.4 -0.8,0.2 -0.3,0.1 -0.3,0.3 -0.3,0.2 -0.1,0.3 -0.1,0.2 -0.4,1.7 -0.1,0.3 -0.3,0.3 -0.3,-0.1 -0.2,-0.1 -0.3,-0.1 -0.3,0.3 -0.8,0.7 -0.4,0.1 -0.6,0.1 -2,0.9 -1,0.6 -0.1,0.6 -0.3,0.4 -0.8,-0.1 -0.3,0.4 -0.3,0.9 -0.5,1.1 -1.2,1.7 -2.4,2.4 -1,1.4 -0.7,2.1 -0.3,1.8 -0.5,1.3 -0.2,1.4 -1.2,3.1 -0.9,1.4 v 0.7 l 0.1,0.4 0.2,0.4 v 0.4 0.5 l -0.2,0.3 -0.3,0.1 h -0.9 l -0.3,0.2 -0.5,0.5 -1.4,0.9 -0.6,0.7 -0.4,2.1 -0.5,0.6 -0.6,0.5 -0.6,0.7 -0.2,0.4 -0.2,1 -0.2,0.4 -0.4,0.2 -0.4,0.1 -0.4,0.2 -0.4,0.9 -0.7,0.5 -0.8,0.4 -0.8,0.1 -1.5,-0.5 -1.1,-1.2 -1,-1.3 -1.1,-1.2 -1.4,-0.9 -0.8,-0.3 -1,-0.1 -0.7,0.1 -1.3,0.7 -0.8,0.2 -0.4,-0.1 -1.1,-0.5 -0.5,-0.1 -3.2,0.6 -0.7,0.4 -0.8,1.9 -0.8,2.2 -1,1.1 -0.2,0.2 -0.5,0.4 -1,0.5 -1.4,0.2 -0.7,-0.3 -0.8,0.4 -1.1,-0.8 -0.8,-0.6 -0.7,-0.3 -0.4,0.1 -0.3,0.4 -0.4,0.2 -0.4,-0.3 -1.1,-1.5 -1.2,-0.8 h -0.7 l -2.2,0.7 -3.6,-0.6 -3.3,0.2 -2.9,-0.5 -4.1,0.5 -0.6,0.4 -0.5,0.6 -0.8,0.6 -1.5,0.9 h -2.5 l -1.6,-1.3 -0.8,0.1 -0.6,0.3 -1.4,-0.7 -0.6,-0.8 -1.3,0.1 -1.3,0.1 -0.6,0.5 -2.1,0.2 -2.9,-0.9 -1.4,-0.5 -2.1,0.5 -2.9,0.8 -3.8,-1.1 -1,0.3 -1.2,0.9 -3.5,0.5 -1.1,0.1 -7.2,-0.5 -0.7,0.2 -0.5,0.4 -1.2,2 -0.2,0.4 -0.6,0.6 -0.4,0.8 -0.2,0.8 -1.1,2 -2.6,0.3 -1.1,2.2 -1.4,0.9 -0.4,0.2 -0.8,0.4 -1.7,0.4 -1.7,-0.1 -4.7,-0.6 h -0.9 l -0.4,0.1 -0.4,0.4 -2.9,2 -2.8,0.2 -1.8,1.2 -0.5,0.2 -1.5,0.1 -0.7,0.3 -0.5,0.3 -0.5,0.7 -1.1,2 v 0.4 l -0.7,1.9 -0.4,0.7 -0.2,0.2 -0.3,0.3 -0.3,0.2 -0.7,0.3 0.1,0.4 0.1,0.4 -0.4,0.7 -1.3,2.5 -0.2,0.5 -0.2,2.3 h -0.8 l -0.3,-1.1 -0.7,-0.4 -0.9,-0.4 h -0.8 l -0.2,0.5 -0.3,0.4 -0.2,0.6 v 0.7 l 0.3,0.7 -0.2,0.4 0.1,0.7 0.2,0.5 0.1,0.4 -0.1,0.6 -0.3,0.3 -0.2,0.3 -0.9,0.3 -4,1.5 -0.6,0.4 -1.3,0.3 -0.7,-1.5 -1.7,-0.9 -0.7,-0.6 -0.9,0.4 -0.9,-0.3 -0.8,-0.5 -1.7,-0.5 -0.6,-0.6 -0.9,-1.2 -2.6,-2.6 -0.8,-0.5 h -0.9 l -1.8,0.3 -2.1,-0.6 -1.1,-1.4 -0.8,-1.7 -0.9,-1.5 -2.2,-1.2 -0.2,-0.7 -0.1,-0.8 -0.3,-0.9 -0.4,-0.9 -1.4,-1.6 -0.9,-2.2 -0.6,-1.5 -0.9,-1.7 -0.9,-0.8 -0.4,-0.4 0.5,-0.2 0.4,0.1 1.3,1.1 0.3,0.5 -0.2,0.4 0.3,0.5 0.6,0.7 0.5,-0.1 0.3,-0.3 0.5,-0.7 0.8,-1 h -0.3 l -0.8,0.3 -0.7,-0.1 -0.3,-0.8 0.2,-1.5 -0.3,-1 -2,-1.8 -0.4,-0.3 -2.7,-0.1 -0.8,-0.2 -0.6,-0.7 -0.5,-2 -0.4,-0.9 -0.6,-1 -0.2,-0.9 0.2,-0.9 0.7,-0.8 0.8,-0.4 1.5,-0.6 0.5,-0.4 0.4,-1.2 -0.3,-2.1 0.2,-1.2 1.4,-1.2 3.2,0.3 1.2,-1.6 -0.8,0.6 -1,0.4 h -1 l -0.8,-0.6 -1.7,0.6 -0.8,0.6 -0.3,1.1 0.3,3 -0.3,0.6 h -1.4 l -1.1,-1.5 -1.4,-3.3 -0.9,-1.6 -1.1,-1.2 -9.9,-7.2 -1.1,-0.6 -0.9,-0.2 -0.7,-0.3 -1.7,-1.4 -0.8,-0.4 -0.8,-0.4 -0.7,-1.2 -0.3,-1.3 0.3,-0.6 0.5,-0.4 1.4,-2.1 0.4,-0.9 -2,2.3 -1.1,0.8 h -1.3 v 0.3 l 0.9,1.4 0.4,0.8 0.1,0.6 -0.6,0.1 -3.5,-1.8 -1.3,-0.4 -1.6,-0.5 -1.1,0.4 1.2,0.2 0.5,0.3 -9.8,0.2 -0.6,0.3 -0.8,0.7 -0.7,0.1 -0.7,-0.3 -0.7,-0.3 -0.6,-2.3 -0.2,-1.1 0.3,-0.8 -0.4,-1.7 -0.3,-4 -0.7,-1.6 0.1,-0.6 -0.1,-1.1 -0.3,-1.2 -0.3,-1 -0.2,-0.3 -0.7,-0.6 -0.3,-0.3 -0.3,-0.5 -0.1,-0.1 v -0.2 l -0.1,-0.4 -0.2,-0.7 h -0.1 -0.1 v -0.6 l 0.1,-0.2 0.4,-0.5 0.1,-0.2 0.1,-0.3 v -0.2 l -0.1,-0.3 0.4,-0.3 1,-1.1 0.3,-0.4 0.2,-0.8 0.4,-2.5 0.5,-1.5 0.7,-1 3.8,-3.2 1.1,-2 0.4,-1.7 0.9,-2.4 0.2,-0.9 v -0.5 l -0.1,-0.5 v -0.4 l 0.2,-0.3 1.3,-0.3 0.4,-0.3 0.6,0.1 0.5,0.1 0.5,0.1 0.5,-0.3 0.5,-0.1 0.3,-0.2 0.4,-0.6 0.4,-1.1 0.4,-0.4 0.7,0.1 2.3,1 1,-0.2 0.3,-1.2 0.4,-0.6 0.4,-1.6 0.7,-1.6 0.6,-1.7 0.3,-0.7 0.4,-1.5 -0.1,-0.1 -0.6,-0.4 -1.1,0.1 -1.1,0.3 h -0.1 l -0.2,-0.1 -0.5,0.7 -1,0.5 -1,0.2 h -0.6 l -0.6,-0.5 -0.4,-0.4 -1.6,-4.2 -0.2,-0.2 -0.7,-0.5 -0.3,-0.3 -0.1,-0.3 -0.3,-0.7 -0.2,-0.3 -4.2,-5.5 -1.2,-0.9 -0.5,-0.3 0.5,-0.6 0.4,-0.5 0.1,-0.6 -0.5,-0.7 0.4,-0.6 0.7,-2.6 1.7,-2.5 0.2,-0.7 -0.1,-0.4 -0.2,-0.2 -0.3,-0.1 -0.2,-0.4 v -0.4 l -0.1,-0.5 0.1,-1.2 0.3,-1.7 0.1,-0.4 0.4,-0.7 v -0.2 l 1.8,-1.5 0.6,-0.5 0.6,-0.2 0.7,-0.6 0.6,-0.6 0.2,-0.5 0.4,-0.3 1.8,-0.4 0.7,-0.4 0.5,-0.5 0.5,-0.4 0.3,-0.2 v -0.7 l 0.2,-0.8 -0.6,-1.1 0.9,-0.7 0.9,-1.3 1.3,-2.6 0.4,-0.5 0.2,-0.5 v -0.5 l -0.5,-0.4 0.3,-0.9 -0.3,-1 -0.5,-0.9 -0.7,-0.7 -0.9,-0.6 -1.1,-0.3 -1,0.1 -1,0.6 -0.5,0.2 -0.6,-0.1 -0.6,-0.3 -0.4,-0.4 -0.1,-0.5 0.5,-1 0.1,-0.5 -0.5,-1 -1,-0.4 -1.1,-0.3 -1,-0.6 -0.6,-0.8 -0.3,-1.1 0.1,-1.1 0.5,-0.9 -2,-2.5 -0.7,-0.6 -0.3,-0.6 -0.2,-1.1 v -1.2 l 0.2,-0.7 0.3,-0.8 0.2,-1.2 v -1.1 l -0.3,-0.5 -1.7,-0.5 -0.8,-0.4 -0.7,-0.5 -0.3,-1.1 -0.4,-0.5 -1.4,-0.7 -0.6,-0.6 -1.2,-1.6 -0.8,-0.7 -1.3,-3.7 -0.3,-0.7 v -0.1 l 8.7,0.4 0.5,-0.2 0.7,-0.3 0.7,-0.1 h 1.7 l 0.6,-0.2 0.9,0.6 h 1.3 l 5.9,-0.7 0.6,-0.3 0.5,-1.1 -0.1,-0.4 -0.1,-0.3 v -0.5 l 0.2,-0.5 0.5,-0.9 0.2,-0.5 -0.1,-0.4 -0.2,-0.5 v -0.6 l 0.3,-0.7 0.3,-0.3 0.9,-0.3 0.4,-0.3 1,-1.5 0.1,-0.5 0.1,-0.9 v -0.5 -0.2 l -0.1,-0.6 v -0.2 l 0.1,-0.3 0.4,-0.3 0.1,-0.2 0.3,-1.3 0.1,-0.5 -0.1,-0.5 0.2,-0.6 0.7,-1.2 -1.6,-2.9 -0.9,-1.1 -0.5,-0.9 -0.5,-0.4 -0.4,-0.2 -1.1,-0.1 -0.5,-0.2 -0.4,-0.7 -0.3,-1.8 -0.4,-0.8 0.4,-0.6 0.4,-1.2 0.3,-0.5 0.8,-0.3 1.7,-1.2 h 0.5 l 0.3,-0.1 0.8,0.1 0.8,-0.1 0.7,-0.5 0.1,-0.3 v -0.4 l 0.1,-0.5 0.1,-0.4 0.3,-0.3 1.7,-1.3 0.4,-0.3 0.7,-1.3 -1.4,-1.3 -0.9,-1.5 -0.3,-1.8 0.8,-1.8 0.9,-1.4 0.1,-0.6 -0.2,-0.9 -0.4,-0.8 -0.5,-0.4 -0.3,-0.6 -0.1,-0.9 0.3,-0.8 0.9,-1.8 0.3,-0.9 v -0.6 l -0.1,-1 -0.3,-1.7 -0.5,-1.8 -0.1,-0.7 v -1.1 -0.5 l 0.2,-0.3 v -0.3 l -0.1,-0.6 -0.1,-0.3 0.1,-1.4 0.6,-0.2 0.2,-0.6 -0.2,-0.8 -0.4,-0.3 -0.7,-0.1 -0.3,-0.5 -0.3,-1.1 -0.9,-2.2 -0.6,-0.9 -1.2,-1.4 -0.4,-0.6 -0.1,-0.7 0.4,-0.7 0.2,-1 0.8,-0.4 2.5,0.2 1.1,-0.1 0.6,-0.6 1.6,-2.3 0.3,-1 -0.1,-1.3 0.2,-0.4 0.5,-0.7 1.4,-1.2 0.2,-0.5 0.3,-0.8 1.5,-2.1 0.4,-0.6 0.8,-0.1 h 2.6 l 0.4,-0.3 2.3,-1 1.4,-1.1 1.3,-1.3 1.2,-2.1 h 0.2 l 0.5,0.1 0.1,-0.1 0.1,-0.3 0.1,-0.4 V 172 h -0.2 l 0.6,-0.5 0.5,-0.2 1.3,-0.1 v -0.4 l 1.5,-2.5 0.1,-0.4 -0.2,-0.3 v -0.5 l 0.3,-0.5 1,-1.1 1.9,-2.9 -0.4,-0.5 -0.5,-0.8 -1.7,-1.8 -1.8,-1.2 -2,-0.7 -3.3,-0.7 h -0.5 l -0.3,0.2 -0.3,0.4 -0.5,0.4 -0.7,0.3 -0.4,0.1 -1.1,-0.4 -0.6,-0.9 -0.2,-1.1 -0.1,-1 -0.2,-0.5 -0.2,-0.5 -0.2,-0.4 0.3,-0.5 0.3,-0.5 0.1,-0.5 1,-4.4 0.5,-1 -1.1,-0.4 -0.7,-0.1 -0.3,-0.4 0.3,-2.3 -0.1,-0.9 -0.6,-0.7 -1,-0.4 -0.5,1.2 -1.4,0.4 -2.8,0.1 -1.3,-0.3 -1.4,-2.3 -1.3,-0.3 -0.2,1.7 -1,0.6 -2.5,0.2 -1.1,-0.3 -1,-0.7 -0.6,-0.3 -0.3,-0.2 -1,0.7 -1.4,0.6 -1.3,-0.6 -1.2,-1 -1.3,-0.9 -0.6,0.1 -0.7,0.4 -0.6,0.5 -0.3,0.3 -0.1,0.8 0.3,1.7 -0.1,0.9 -0.5,0.7 -0.4,0.5 -1.3,0.9 -2.9,1 -0.7,0.1 -1.5,-0.1 -0.6,0.1 -0.5,0.4 -1,1.1 -0.5,0.5 -0.2,-0.9 -0.4,-0.9 -0.5,-0.7 -0.6,-0.2 -0.3,-0.1 -0.7,-0.4 h -0.3 l -0.3,0.3 v 0.3 l -0.1,0.3 -0.2,0.4 -0.6,0.5 -0.8,0.3 -0.9,0.1 -0.7,-0.1 -0.7,-0.3 V 148 l 0.6,-1.8 h -2.1 l -0.7,-0.4 -1.2,-0.8 -0.6,-0.2 -1.1,0.6 -2.5,0.6 h -1.1 l -0.5,0.1 -0.1,0.3 -0.2,0.4 -0.3,0.3 h -1.2 l -0.3,-1.6 -0.1,-1.5 -0.8,0.3 -0.2,0.7 -0.2,0.9 -0.4,0.7 h -0.7 l -0.7,-0.1 -0.6,0.3 -0.5,0.5 -0.4,0.6 -1.3,1.4 h -0.1 l -1.7,0.6 -3.5,-0.3 v -0.1 l 0.2,-1.3 -0.1,-0.7 -0.3,-0.4 -1.4,-0.6 -0.5,-1 0.1,-1 0.4,-0.9 1.5,-2.4 1.2,-1.1 1.2,-0.8 0.6,-0.5 0.4,-0.7 0.1,-1 -0.3,-0.8 -0.6,-0.6 -0.8,-0.3 -0.8,0.1 -0.7,0.3 -0.7,0.2 -0.5,-0.4 -0.1,-0.9 0.1,-2.3 -0.3,-0.9 -0.4,-0.5 -1.2,0.9 -0.8,0.3 h -0.7 l -0.3,0.1 -0.3,0.2 -1.1,1 -0.6,0.3 -6.3,1 -0.7,0.3 -1.4,1 -0.8,0.3 h -1.4 l -0.8,0.2 -0.6,0.5 -0.4,0.6 -0.4,1.1 -0.3,0.6 -0.9,0.5 -1,0.3 -0.9,0.5 -0.5,0.3 -0.4,0.9 -0.6,0.9 -0.8,0.6 -0.8,0.2 -0.7,0.4 -0.6,0.8 -0.7,0.6 -0.6,-0.2 0.1,-0.8 -0.8,-10.6 0.1,-0.9 0.4,-0.4 h 1.6 l 0.8,-0.2 0.3,-0.5 -0.2,-0.5 -0.8,-0.3 -0.1,-0.4 0.2,-0.2 1,-0.5 0.1,-0.3 0.1,-0.5 0.2,-0.5 0.4,-0.2 0.2,-0.2 0.8,-0.9 2.1,-1.7 0.5,-0.2 0.2,-0.1 1.3,-1.2 0.7,-0.3 0.9,-0.6 0.2,-0.3 0.2,-0.4 v -1.7 l -0.1,-0.4 h -0.1 l -0.4,0.1 -0.6,0.6 -0.4,1 -0.6,1 -1,0.4 -0.8,0.2 -2.2,1 -0.4,0.5 -0.5,0.1 -2.1,-0.2 -0.8,0.3 0.2,-0.7 0.4,-1.2 v -0.8 h 0.3 l 0.5,0.9 0.3,-0.4 v -1.8 l -0.1,-0.4 -0.1,-0.3 0.2,-0.1 0.5,-0.1 1.5,0.3 0.2,-0.1 0.3,-0.7 1.5,-1.8 0.7,-0.7 1.3,-0.9 0.6,-0.5 0.3,-0.8 -0.4,0.2 -0.3,-0.1 -0.4,-0.1 h -0.4 l -0.1,0.1 -0.1,0.1 -0.9,0.5 -1,0.8 -0.5,0.4 -0.9,0.2 -1.3,0.1 -1.3,-0.2 -1,-0.6 -0.3,-0.6 -0.2,-1 -0.3,-0.6 -0.5,-0.3 -1.4,-0.2 -0.3,-0.2 0.3,-0.6 0.7,-0.4 0.9,-0.4 0.6,-0.1 0.5,0.1 0.3,0.5 v 0.5 l -0.5,0.4 0.3,0.2 0.6,0.2 0.6,0.1 0.4,-0.1 0.1,-0.6 -0.1,-0.7 v -0.5 l 0.5,-0.5 -0.5,-1.9 v -0.9 l 0.1,-0.8 0.4,-0.7 0.5,-0.4 0.5,-0.2 0.5,-0.7 1.5,-3.3 0.3,-1.3 h -0.2 l -0.3,0.9 -0.4,0.9 -0.5,0.6 -0.7,0.3 -0.8,-0.3 -0.5,-0.7 -0.4,-0.9 -0.5,-0.4 -0.7,1.1 v 0.7 l 0.4,0.5 -0.9,1.2 -0.5,0.3 -0.6,-0.4 0.2,-0.6 -0.5,0.3 -1.4,1 0.6,0.7 -0.5,0.4 -1.4,0.4 -0.1,0.3 -0.3,1.3 -0.4,0.1 -0.3,0.3 -0.6,0.7 -0.6,-0.7 -0.1,-1 -0.2,-0.9 -0.9,-0.4 -0.6,-0.6 0.2,-1.3 0.6,-1.4 0.5,-0.9 v -0.6 l 0.1,-0.8 0.3,-1.1 0.4,-0.7 0.2,-0.4 0.3,-0.4 0.5,-0.1 0.1,-0.2 1.2,-0.6 1,-1.5 0.6,-0.5 1,-0.3 0.3,-0.4 0.2,-0.8 -0.1,-0.9 -0.8,-0.5 -0.2,1.3 -0.6,0.8 -0.9,0.4 -1.1,0.1 -2.1,-0.3 -0.8,0.2 0.1,0.9 -0.9,1 -0.5,0.3 -0.8,-0.2 -0.5,-0.4 -0.3,-0.7 -0.2,-0.9 -0.4,-1 h 0.5 l 0.4,-0.2 0.3,-0.4 0.2,-0.5 -0.3,-0.7 -0.6,-0.4 -0.7,-0.3 -0.1,-0.4 -0.2,-0.7 v -0.4 l 0.1,-0.2 0.3,-0.4 0.1,-0.3 0.1,-0.5 -0.1,-0.4 -0.2,-0.2 -0.7,-0.1 -0.4,-0.2 -0.6,-1 -0.5,-0.2 v 0.3 l 0.2,0.6 -0.2,0.3 -0.4,0.1 h -0.2 l -0.2,-0.8 h -0.4 l -0.4,0.3 -0.4,0.3 -0.3,0.5 -0.4,1.1 -0.3,0.5 -0.2,-0.1 -0.4,-1.3 -0.3,-0.4 v -0.3 l 0.2,-0.5 0.9,-2.3 v -0.4 l 0.1,-0.4 0.1,-0.5 0.2,-0.3 0.1,-0.5 -0.2,-0.3 -0.6,-0.5 -0.3,-1.3 0.3,-0.3 h 0.6 l 0.2,-0.5 0.3,-1 0.4,-0.5 0.5,-0.3 0.2,-0.7 0.6,0.6 0.5,0.1 0.5,-0.2 0.6,-0.5 0.2,-0.3 0.1,-0.2 0.2,-0.3 0.4,-0.3 0.3,-0.2 0.3,-0.1 h 0.7 v -0.4 l -0.7,0.3 -0.9,0.2 -0.6,-0.1 v -0.4 l -1.3,0.6 -0.5,-0.1 -0.4,-0.9 1.9,-1.9 1.3,-0.7 1.5,0.7 h 0.7 l 0.7,-0.2 0.6,-0.2 0.5,-0.4 0.5,-0.4 0.4,-0.7 0.2,-0.8 h 0.3 l 0.8,0.6 h 1 l 1.1,-0.5 0.7,-0.5 -0.9,0.1 -0.4,-0.4 -0.6,-1.2 h -0.2 l -0.5,-0.3 -0.3,-0.3 0.3,-0.2 h 0.4 l 1.6,-0.7 1.7,-1.2 1.3,-0.3 0.3,-0.4 0.3,-0.3 0.4,-0.1 0.6,0.3 1.2,1.3 0.7,0.3 0.8,0.1 1.5,0.5 0.8,0.1 1.1,-0.4 1.4,-0.8 1.5,-0.5 1.4,0.6 2.1,-1 0.4,-0.3 0.1,-0.5 0.3,-0.5 0.4,-0.3 0.9,-0.2 0.1,-0.2 0.1,-0.2 0.3,-0.2 2.2,-0.6 0.1,0.7 0.4,0.6 0.9,0.8 0.5,-0.7 0.1,-0.5 -0.1,-1.3 0.4,-0.7 0.8,0.1 1.2,0.8 0.6,0.2 0.2,0.5 0.2,0.6 0.3,0.6 0.9,0.9 0.4,0.6 0.3,0.8 0.3,-0.9 v -0.8 l -0.3,-1.7 v -0.9 l 0.2,-0.5 0.4,-0.4 0.8,-0.5 -0.8,-0.4 -0.7,-0.1 -1.4,0.1 -0.7,-0.2 -1,-1.1 -0.7,-0.2 0.8,-0.6 4.1,-0.6 0.3,-0.1 0.2,-0.2 0.2,-0.4 v -0.4 l -0.2,-0.1 -1,0.5 -2.4,0.4 0.1,-0.2 0.1,-0.1 0.3,-0.1 -0.1,-0.2 -0.4,-0.2 -0.5,0.7 -0.8,0.3 -1.8,0.1 0.3,-0.8 0.2,-1.2 0.2,-0.8 0.4,0.2 0.6,-0.8 -0.4,-0.3 -0.3,-0.4 -0.2,-0.6 v -0.6 h 0.2 l 0.7,0.1 0.3,-0.1 0.9,0.1 1.2,-0.6 5.9,-4.5 0.1,0.6 0.4,0.4 h 0.4 l 0.5,-0.2 h -0.4 -0.2 v -0.4 l 0.2,-0.1 0.2,-0.2 0.2,-0.1 -0.8,-0.6 -0.1,-0.6 0.2,-0.6 0.1,-0.7 0.3,-0.4 0.6,-0.2 h 1.3 l 1.2,-0.3 1.2,-0.7 1,-0.9 0.8,-1.1 1.1,0.1 0.5,0.8 0.3,1 0.6,0.8 V 45 l -0.3,-0.1 -0.4,-0.1 -0.2,-0.1 -0.3,0.5 -0.1,0.5 -0.1,0.4 0.3,0.4 -0.4,0.4 -0.2,-0.1 -0.3,-0.3 -0.2,0.3 -0.1,0.1 -0.2,0.1 v 0.3 l 2,0.2 0.4,-0.5 -0.8,-1.2 0.5,-0.3 h 0.5 l 1,0.3 -0.1,-0.2 -0.1,-0.4 -0.1,-0.2 0.6,-0.6 0.7,-0.6 0.8,-0.5 1.6,-0.4 0.9,-0.6 0.7,-0.8 0.2,-0.9 0.2,-0.1 0.3,0.1 0.3,0.4 0.1,0.6 -0.2,0.4 -0.9,1.1 -0.1,0.8 0.2,0.3 0.3,-0.1 0.4,-0.2 0.1,-0.1 -0.1,-0.3 0.1,-0.3 0.3,-0.1 h 0.3 l 0.7,-0.4 0.1,0.8 1,1.9 -0.1,0.9 0.3,-0.1 0.5,-0.7 0.4,-0.8 0.5,0.2 0.3,-0.3 0.4,-0.5 0.6,-0.2 1.6,0.2 0.5,0.2 3.3,1.9 1.6,0.6 2.6,4.5 1.9,1 -0.1,0.2 -0.1,0.2 -0.1,0.2 -0.3,0.1 v 0.4 l 0.6,0.3 0.3,-0.2 0.3,-0.3 0.5,-0.2 h 0.6 l 0.8,0.3 1.5,0.2 2.5,-0.1 0.7,-0.4 0.7,0.4 0.7,0.1 0.5,0.4 V 55 l -0.3,0.6 -0.4,0.7 -0.2,0.7 0.4,1 h 0.2 l 0.2,-0.9 0.2,-0.9 0.2,-0.8 0.6,-0.4 0.3,-1.3 2.3,-0.5 4,-0.2 0.6,0.2 2.4,-0.2 1.7,0.5 1,0.1 2.3,-1.2 2,0.2 2.1,0.8 1.5,0.8 0.4,-0.3 0.4,-0.1 h 1.1 l -0.1,-0.3 -0.1,-0.6 -0.1,-0.3 0.6,0.1 0.9,0.6 0.6,0.1 2.1,-0.4 h 2.1 l 0.5,-0.1 1.1,-0.5 1,-0.2 0.2,-0.3 0.3,-0.3 0.6,-0.1 1.3,1 0.5,0.1 3.1,0.4 0.6,-0.4 0.7,0.4 0.6,-0.3 0.6,-0.5 0.6,-0.3 h 4.7 l 0.2,-0.5 -0.3,-0.4 -0.1,-0.5 0.5,-0.5 -0.1,-0.2 -0.1,-0.4 -0.1,-0.2 h 1.3 l 0.5,-0.2 0.2,-0.7 0.2,-0.6 0.7,0.1 1.3,0.6 0.9,0.8 2.2,2.6 0.7,1.2 h 0.3 l 0.2,-0.8 0.3,0.3 0.5,0.9 2.1,0.4 8.1,-0.4 1.3,0.4 0.1,0.7 -0.5,0.9 -0.7,0.7 0.2,0.4 0.5,-0.3 0.8,-0.3 0.4,-0.2 0.3,-0.4 0.1,-0.3 0.2,-0.3 0.6,-0.1 1.7,0.1 0.7,0.3 2.9,1.9 1.4,0.5 3.5,0.2 0.9,0.3 0.5,0.7 0.4,-0.3 2.9,0.8 0.3,-0.1 0.6,-0.5 0.4,-0.1 0.5,0.1 0.9,0.5 2.9,0.6 3.3,1.6 0.8,0.2 9,0.8 0.1,0.1 1.1,1 0.8,-0.8 1.2,-0.2 1.1,0.3 0.8,0.7 h 0.2 l 0.5,-0.7 0.3,-0.2 1.9,0.2 5,-0.5 1.2,-0.9 2.5,-0.8 1,-0.1 h 1.8 l 0.2,-0.2 v -0.2 l 0.1,-0.3 0.3,-0.1 0.3,0.1 1,0.7 0.2,-0.3 0.2,-0.1 h 0.2 0.2 l -0.1,-0.1 -0.4,-0.3 v -0.4 l 1.4,-1 0.7,-0.3 0.6,0.2 0.5,-0.3 h 0.2 l 0.2,0.3 1.1,-0.7 1.3,-0.3 1.2,0.2 1.1,0.8 -1.8,0.8 -0.7,0.5 -0.6,0.6 0.5,0.5 0.2,0.2 0.2,0.1 h -0.2 -0.1 v 0.1 0.2 l 0.4,0.1 0.4,-0.1 0.6,-0.3 0.3,-0.3 0.5,-0.8 0.2,-0.1 0.3,0.1 0.4,0.5 0.4,0.2 0.1,-0.3 -0.1,-0.5 -0.2,-0.5 -0.3,-0.2 v -0.4 l 0.6,0.1 0.2,0.1 0.3,0.2 0.1,-0.3 0.2,-0.1 -0.3,-0.4 0.5,-0.2 1.1,-0.1 0.5,-0.3 0.4,-0.4 0.5,-0.2 3,-1 1.1,0.1 -0.1,1 h 0.7 l 0.5,0.4 0.5,0.5 0.3,0.2 2.8,0.5 0.2,0.2 0.2,0.3 v 0.3 l -0.1,0.5 -0.1,0.1 -0.3,-0.1 -0.3,0.1 -0.2,-0.2 -0.4,-0.2 -0.3,-0.1 -0.2,0.3 -0.1,0.3 -0.4,0.3 -0.6,0.4 0.8,0.1 0.4,0.7 0.4,0.2 0.6,-1 0.4,0.6 0.6,0.1 1.2,-0.4 0.6,0.1 1.9,0.7 2.5,0.4 1.8,0.7 0.6,0.1 0.4,0.2 0.9,1.1 1.1,0.3 0.7,0.3 0.8,0.1 0.9,-0.8 1.3,0.8 2,1.8 V 66.4 L 657.3,65 657.2,64.3 657,63.9 v -0.2 l 0.2,-0.2 0.5,-0.2 0.5,-0.6 1.7,-1.1 0.7,-0.2 V 61 h -0.3 v -0.3 l 0.7,-0.4 1,-0.1 2,0.1 2,-0.2 0.8,-0.4 0.7,-0.2 0.5,0.1 0.9,0.6 0.8,0.8 0.3,0.6 0.5,1.4 0.1,1.2 0.2,-0.2 0.3,-1 v -0.3 -0.3 l 0.1,-0.3 0.2,-0.3 0.4,-0.1 0.5,0.2 0.5,0.2 1.2,0.2 2.4,1 1.7,0.4 0.9,0.3 0.8,1.2 3.9,1.9 1.6,0.5 1.8,0.2 1.7,-0.2 1.4,-0.4 0.4,-0.1 0.3,0.2 0.2,0.4 0.4,0.4 0.5,0.2 0.1,-0.1 0.1,-0.1 0.2,-0.1 0.3,-0.1 0.2,0.1 0.1,0.3 0.1,0.2 0.3,0.2 1.2,-1 0.5,-0.1 0.8,-0.2 2.9,-1 0.9,-0.6 0.5,-0.2 h 0.5 l 0.5,0.4 0.3,0.5 0.3,0.3 0.6,-0.4 -0.2,-0.2 -0.4,-0.4 -0.2,-0.2 1.6,-0.8 1.5,-1.3 1.5,-0.8 z m 152.6,52.1 -1,-0.1 -0.5,-0.5 -0.1,-0.6 0.5,-1 0.4,-0.2 0.5,0.5 0.4,1 0.4,0.7 -0.1,0.1 -0.4,0.1 z M 232.9,538 l 0.8,0.1 0.7,0.4 0.5,0.6 0.2,0.6 -0.2,0.7 -1.7,2.6 -0.1,0.2 0.1,0.3 v 0.3 l -0.2,0.3 -0.2,0.1 -0.2,0.1 -0.2,0.1 v 0.3 l -0.2,0.2 -0.3,0.3 -0.3,0.3 -0.1,0.4 -0.1,1.1 -0.4,0.5 h -0.6 l -0.8,-0.5 -0.6,-0.6 -0.4,-0.6 -0.5,-0.5 -3,-0.4 -0.8,-0.4 -0.6,-0.6 -0.2,-1.6 1,-0.5 1.8,0.1 1.6,0.4 0.6,-0.4 1.6,-1.5 0.3,-0.4 v -0.5 l 0.2,-0.2 0.9,-0.4 z m 102.7,-8.2 0.3,0.3 0.6,0.4 0.2,0.3 -0.1,0.7 -0.3,0.8 -0.1,0.8 0.5,0.8 v 0.3 l -0.4,0.2 -0.3,0.4 -0.4,1 0.3,0.6 0.3,0.9 -0.1,0.7 -0.6,0.2 -0.5,0.4 -1.3,1.6 -0.6,0.5 -2.8,0.9 -0.5,0.3 h -0.2 l -1.1,1.2 -0.4,0.2 -0.5,-0.2 -0.3,-0.3 -0.4,-0.2 -1.8,-0.1 -0.7,-0.2 -0.7,-0.3 -2.2,-1.9 -0.3,-0.4 -0.2,-0.3 -0.8,-0.5 -0.4,-0.3 -0.2,-0.3 -1.1,-2.6 -0.3,-0.9 0.2,-0.9 -0.1,-0.5 -0.1,-0.8 v -0.7 l 0.2,-0.5 0.4,-0.4 1.6,-0.9 0.7,-0.5 1,-1 0.7,-1.1 -0.2,-1.1 0.4,-0.5 0.2,-0.8 -0.1,-0.9 -0.2,-0.7 h 0.4 0.5 l 0.4,0.1 0.3,0.2 0.6,-0.1 2.2,0.7 h 3 l 2.6,0.7 0.9,-0.4 -0.1,-1.5 1.2,-0.2 0.1,0.1 0.2,0.5 v 0.4 l -0.3,0.2 -0.3,0.5 v 1.3 l 0.3,1.8 0.1,0.3 0.1,0.5 0.2,0.6 z m -77.5,-8.1 2,-0.5 1.9,0.6 1.7,1.1 2.2,1.6 0.5,1.1 0.2,1 -0.6,0.9 -0.8,0.5 -1.2,1.1 -0.9,0.7 -0.9,0.2 -1,0.3 -1,-0.2 -2.1,-1.3 -1.4,-2.1 v -1.6 l 0.2,-1.7 z m 35.6,2.6 -0.5,0.8 -0.6,0.8 -2.7,2.7 -0.6,0.9 -0.3,0.6 -1.4,-0.3 -2.2,0.9 -1,0.3 -0.7,0.3 -0.7,-0.1 -0.4,-0.6 -0.1,-0.5 0.1,-0.5 -0.4,-0.2 -0.3,-0.2 -0.1,-0.4 -0.1,-0.9 -0.1,-0.3 -0.6,-0.7 -1.5,-1.6 -0.4,-0.7 -0.2,-1 -0.6,-0.7 -0.7,-0.7 -0.4,-0.6 -0.3,-2 -0.1,-0.4 -0.6,-0.9 -0.5,-1.1 -1.3,-1.4 -0.4,-0.9 1,-0.6 2.2,-1 0.8,0.3 0.9,0.7 0.5,0.1 h 0.5 l 1.1,-0.3 0.9,-0.5 1.3,-0.4 1,-0.4 0.8,0.2 1.6,-0.1 0.8,-0.1 0.8,-0.6 1,-0.2 0.5,-0.1 0.8,-0.1 0.8,-0.7 1.9,-1.7 0.8,-0.7 0.3,-0.4 0.1,-0.7 0.1,-0.2 0.8,-0.5 0.3,-0.2 0.7,-0.4 0.9,-0.2 0.8,-0.3 0.2,-0.8 0.7,0.2 3.9,0.1 2.5,-0.9 0.9,0.6 -0.3,1.3 -1.3,0.8 -2.9,1.7 -0.7,1.3 -0.9,0.8 -1.1,1.1 -1.1,1 -0.7,0.3 -0.6,0.4 -0.4,0.9 v 1 l 0.2,0.7 0.1,0.5 -0.1,0.5 -0.4,0.3 -0.3,0.4 -0.3,1.1 -1.3,2.4 -0.4,2 z m 99.2,-26.9 1.5,-0.6 1.5,-0.2 1.4,0.4 1.1,1.4 0.5,1.5 0.1,2.1 -0.3,3.9 -0.2,1 -0.8,1.7 -0.1,0.6 -0.1,1.6 0.1,0.5 0.1,0.3 0.4,0.6 v 0.3 l -0.2,0.5 -0.7,0.7 -0.1,0.2 -0.1,0.4 v 0.5 l -0.2,0.4 -0.6,1 -0.4,0.7 -0.4,1.6 -0.9,1.5 -1.4,0.8 -4.2,0.7 -1.9,0.5 -1.3,1 -1.6,0.4 -0.9,0.4 -1.3,1.5 -1.1,1.5 -1.2,1.3 -1.7,0.8 h -1 l -1.6,-0.8 -0.8,-0.2 -2.7,0.2 -0.5,-0.2 0.2,-0.1 0.1,-0.6 0.1,-0.5 v -0.2 l 0.3,-0.1 1.4,0.3 0.8,-0.1 1.5,-0.5 2.3,-1.1 2.9,-1.9 1.2,-1.1 0.6,-0.8 0.5,-0.8 0.2,-0.9 0.2,-2.2 0.4,-0.8 0.9,-1.4 1,-3.3 0.2,-0.5 0.5,-0.4 1.2,-2 0.9,-2.3 1.6,-2.3 0.5,-2.3 0.6,-1.4 0.2,-1.7 0.2,-0.6 0.4,-0.5 z m -152.8,-3.8 -0.1,0.9 0.3,1.1 0.4,0.8 0.7,0.4 0.1,0.9 -1.2,1.4 -0.6,1 0.3,0.9 0.5,1.7 -0.3,0.8 -0.3,1.2 -0.9,1.3 -0.8,1.8 -0.8,1.6 -0.4,0.9 h -0.2 l -0.2,-0.4 -0.9,-0.5 -0.3,-0.9 -0.3,-2.2 -0.5,-0.6 -0.3,-0.7 -0.8,-1.2 -0.3,-1 -1.5,-2.4 -0.2,-1.2 -0.1,-0.7 -0.2,-0.7 -0.7,-0.5 -0.4,-0.5 0.2,-1.4 1.1,-1.5 1.4,-1.3 1,-0.7 0.8,0.5 1,0.2 1,0.2 1.6,-0.6 0.8,0.3 0.7,0.6 z m 172.6,-19.5 0.7,-0.1 0.8,0.5 1.1,1.1 -0.4,0.9 -0.1,0.8 -0.3,0.6 -0.8,0.5 -0.2,0.7 0.1,0.7 0.3,0.6 v 0.9 0.3 l -0.4,0.6 -0.1,0.4 v 0.3 0.8 0.4 l -0.7,1.2 -1.1,1 -1.3,0.7 -1.9,0.5 -0.4,0.4 -0.4,0.4 -0.4,0.2 -0.7,0.1 -0.9,0.2 -0.7,0.1 -1.4,0.3 -1,0.8 -0.9,1.2 -0.7,1.4 h -0.3 l -0.4,-0.6 -0.8,-0.3 h -1.9 l -0.3,-0.2 -0.3,-0.6 -0.1,-0.5 0.1,-0.3 0.5,-0.1 0.3,-0.4 0.4,-0.7 0.2,-0.8 0.2,-2.3 0.1,-0.6 1.3,-2.2 0.7,-0.8 0.6,-0.4 0.7,-0.3 0.7,-0.2 h 1 l 0.7,-0.3 1.4,-1.1 0.8,-0.5 0.7,-0.3 0.7,-0.1 h 2 l 0.6,-0.2 0.4,-0.5 0.5,-1.1 0.5,-1.6 0.3,-0.8 z m -0.2,-2 0.4,0.8 -0.6,1.1 -1,0.8 -1,-0.2 v -0.3 l 0.7,-0.7 0.3,-1 0.4,-0.8 z m 337.2,-108.8 -0.3,1.1 v 1.2 l 0.6,1.9 -0.8,-0.9 -0.2,-1.5 v -1.7 l -0.1,-1.5 h 0.2 v 0.1 0.1 l 0.1,0.2 0.1,0.2 0.2,0.5 z m 91.3,-47.8 1.6,-0.7 0.7,0.8 -0.1,1.2 -0.9,0.2 h -1.4 l -2,-1.3 -0.7,-0.4 -0.7,0.6 -0.4,0.3 -0.7,0.9 -0.6,0.4 -0.6,-0.2 0.2,-1 -0.2,-0.4 v -0.5 l 0.2,-0.4 0.2,-0.5 v -0.4 l -0.2,-0.2 -0.2,-0.2 0.2,-0.3 0.5,-0.6 0.3,0.3 0.4,-0.2 0.4,-0.6 0.2,-0.8 h 0.1 0.1 v 0.2 0.1 l 2,2.8 z m 3.2,-21.5 -0.2,0.5 0.3,1 0.6,1.8 h -0.7 l -0.5,0.4 -0.3,0.7 -0.2,0.8 -0.2,0.3 -1.4,1 -1.3,1.9 -0.5,0.4 -1.1,0.6 -0.4,0.6 -0.2,-0.2 -0.2,-0.3 -0.2,-0.2 -0.6,0.9 -0.6,0.3 -0.4,1.7 -0.1,1.3 h -1.3 l -0.4,-1 -0.7,-0.6 -0.6,0.3 h -0.3 l -0.1,-0.1 -0.4,0.1 -0.3,-0.7 -0.7,-0.2 -0.7,0.2 -0.3,0.7 -1.2,-0.9 -0.5,-0.6 -0.2,-0.9 0.5,-1.2 0.1,-0.8 -0.3,-0.6 0.3,-0.4 0.4,-0.2 0.5,-0.1 0.4,0.3 0.3,-0.3 0.4,-0.1 1,0.1 -0.4,-2.2 0.1,-1.3 0.4,-0.5 0.6,-0.2 0.6,-0.5 1,-1.1 h 0.2 l 0.4,0.4 0.8,-0.7 0.4,0.3 0.8,-0.6 1.1,-0.6 1.2,-0.3 0.8,0.1 0.4,-0.5 0.6,-0.2 h 0.5 l 0.7,0.6 0.3,0.1 h 0.7 l 0.5,0.1 0.3,0.3 z m 70.7,-36.2 1.1,0.3 2.3,1.4 1.4,0.1 -0.2,0.5 v 0.5 l 0.1,0.4 0.1,0.4 -0.2,0.3 -0.2,0.2 -0.1,0.3 0.2,0.7 -0.5,1.4 -0.5,0.8 -0.5,0.3 -0.7,0.2 -0.4,0.6 -0.2,0.9 0.3,0.8 -1.6,1.5 -1.7,2 -1.3,2.6 -0.4,2.9 -0.4,-0.3 -0.1,-0.1 -0.7,2.2 -1.2,1.3 -3.7,2.3 -1.6,1.4 -0.3,0.5 -0.2,0.2 -0.3,0.2 -0.4,0.2 -0.2,-0.2 -1.1,-1.7 -0.2,-0.2 -0.7,-0.3 -0.2,-0.2 -0.2,-0.5 -0.1,-0.5 -0.1,-0.5 -0.3,-0.2 -0.4,-0.1 -0.6,-0.6 -0.4,-0.1 -0.5,0.1 -0.6,0.2 -0.4,0.1 -3.5,-0.3 -1.6,-0.6 -1,-1.3 -0.4,-2.8 -0.6,-0.4 0.1,-0.9 0.6,-1.2 -0.4,-1.1 -1.2,-1.1 -1.3,-0.8 -1.1,-0.3 -0.9,0.3 -2.6,1.4 -0.5,0.6 -0.5,1.5 -1,1 -1.1,0.2 -0.7,-1.4 -0.1,-0.1 -0.1,-0.4 0.1,-0.3 0.4,-0.3 -1.1,-1.1 -0.4,0.5 -0.3,0.2 -0.2,-0.2 -0.3,-0.5 -1.1,0.7 -0.2,0.1 -0.4,-0.3 -0.4,-1 -0.7,-0.6 -0.2,-0.9 v -1.1 l 0.3,-0.8 2.9,-1.8 0.8,-0.2 0.8,-0.5 1.9,-2.1 0.6,-0.3 0.9,-0.1 0.6,-0.3 0.7,-0.5 1.3,-1.4 0.2,-0.3 0.2,-0.6 0.1,-0.2 h 0.2 l 0.5,0.1 0.2,-0.1 0.9,-1 0.2,-0.2 0.2,-0.1 0.8,-1 0.2,-0.2 0.3,-0.1 1.2,-0.6 0.6,-0.5 0.5,-0.5 0.4,-0.3 0.6,-0.2 0.2,-0.1 0.2,-0.5 0.2,-0.1 0.8,0.1 0.4,-0.1 1.2,-0.5 2.4,-1.7 1.3,-0.3 2.3,-0.2 2.2,-0.6 4.2,-1.7 0.5,0.7 0.2,-0.2 0.2,-0.1 0.5,0.3 -0.4,0.3 -1.5,0.7 -0.5,0.1 -0.6,0.3 -0.5,0.6 -0.5,0.4 -0.5,-0.2 h -0.3 v 1.7 l 1.4,0.2 3.1,-0.8 v 0.3 l -0.4,0.3 -0.1,0.3 0.1,0.4 -0.2,0.4 -0.2,0.3 -0.2,0.2 -0.7,0.2 -1.3,0.4 -0.3,0.4 v 1.1 l 0.4,1.1 1.1,1.1 1.3,0.7 1.2,0.3 h 2.7 l 0.8,-0.3 1.2,-1.2 z m 38.3,-7.4 0.1,0.7 0.9,1.5 0.3,0.8 h -0.2 l -0.2,-0.3 -0.3,-0.3 -0.3,-0.3 -0.3,-0.2 -0.2,3.5 -2,0.3 -2.9,-1.4 -6.6,-4.4 -1.3,-0.5 h -1.6 l -3,0.6 -1.5,-0.6 0.2,-0.6 v -0.8 l 0.1,-0.7 0.5,-0.4 -0.3,-0.3 -0.9,-0.3 -0.3,-0.3 -0.4,-0.7 v -0.2 l 0.1,-0.3 0.1,-0.6 0.5,-0.7 2.8,-0.6 1,0.4 3.9,-0.4 1.6,0.1 0.5,-0.1 0.6,-0.3 0.6,-0.5 0.5,-0.3 0.1,0.7 0.3,0.4 0.9,0.7 v 0.2 l -0.1,0.3 v 0.4 l 0.3,0.2 0.2,-0.1 0.3,-0.4 0.4,-0.6 -0.1,-0.8 0.3,-0.2 0.3,0.3 -0.2,0.7 0.2,0.4 1.2,0.7 0.2,0.4 0.2,0.3 0.4,0.4 0.2,0.1 0.6,0.1 0.3,0.2 0.4,0.5 0.4,0.9 -0.1,0.8 -0.7,0.3 0.6,0.3 0.7,-0.1 0.5,0.2 z m -53.3,39.7 -0.1,1.4 -0.8,1.2 -1.3,-0.1 -0.7,-1.7 1.1,-1.1 1.6,-0.7 z"
       id="ES"
       name="Spain"
       style="fill:none;stroke:#000000" />
    <path
       style="fill:none;stroke:#000000;stroke-width:0.999999px;stroke-linecap:butt;stroke-linejoin:miter;stroke-opacity:1"
       d="m 634.55821,388.11737 c 0,0 -12.37119,-14.71412 -24.81078,-9.44803 -12.4396,5.26606 -21.95554,17.33031 -28.0122,17.33031 -6.05669,0 -14.52034,1.20926 -20.75973,-12.33139 -6.23944,-13.54061 -15.56225,-32.95612 2.18218,-59.865 17.74443,-26.90883 29.86458,-80.96965 26.0338,-105.1751 -3.83074,-24.2055 -8.21616,-66.11755 -26.35139,-93.51258 -18.1352,-27.395002 -28.49817,-46.015525 -24.29156,-53.784987 4.20658,-7.769431 -0.52142,-11.495951 -2.39542,-11.799084 -1.87397,-0.303118 -23.47552,-12.714803 -35.5674,12.208445 -12.09192,24.923225 -10.69009,24.885657 -18.79045,26.594532 -8.10032,1.708874 -19.99703,-4.412031 -23.02938,-9.847975 -3.03239,-5.435905 -2.9063,-14.876863 4.11625,-17.62749 7.02255,-2.750589 25.28398,-34.563946 189.20379,90.100949 163.91978,124.66489 96.25837,164.79769 96.25837,164.79769 v 0 c -45.86993,36.5746 -72.91601,65.04828 -72.91601,65.04828 0,0 -54.44069,28.11885 -63.09819,31.44476 -8.6575,3.32591 -48.84249,26.25759 -59.53893,15.80757 -10.69645,-10.45002 -9.72537,-12.3769 -10.23092,-15.95652 -0.50548,-3.57963 1.80427,-41.62666 -6.70443,-61.16493 -8.5087,-19.53827 -24.25493,-60.60813 -23.47132,-82.88379 0.78361,-22.27571 0.25361,-63.90615 17.80959,-79.17608 17.5559,-15.26993 75.30331,-49.76757 108.56398,45.62476 33.26067,95.39233 -3.92357,145.04326 -5.29047,144.68851 -1.83919,0.88661 -2.97861,2.7317 -4.46683,4.09898 0,0 -3.89949,2.7504 -0.51549,8.5844 3.384,5.834 10.5284,1.58102 13.03649,-0.60117 2.50806,-2.18219 30.10613,-20.57461 33.29881,-43.20064 3.19268,-22.62607 21.38238,-48.23566 39.64627,-55.96827 18.26388,-7.73261 45.72642,-5.12039 48.9775,-21.45532 3.25107,-16.33493 5.18048,-28.84426 -4.38486,-40.66892 -9.56534,-11.82471 -12.43223,-19.89268 -56.69299,-25.19819 -44.26076,-5.30548 -44.47382,16.94744 -44.47382,16.94744 0,0 -5.09238,56.3252 -50.44883,65.94142 -45.35645,9.61621 -77.57257,-17.88125 -77.57257,-17.88125 0,0 -40.84641,-26.11472 -65.30858,-55.44654 -24.46219,-29.33186 -127.46691,-70.84418 -139.71536,96.06966 -12.24844,166.91388 -7.20737,217.70083 1.97266,216.04449 9.18003,-1.65631 10.23055,0.0643 30.60277,-16.81803 20.37219,-16.88221 87.35974,-106.5673 176.97725,-78.93827 89.61751,27.62903 143.37419,8.03425 169.90787,-65.94565 26.53372,-73.97995 49.45909,-146.72349 121.82563,-120.88891 72.3665,25.83454 73.35315,21.23777 76.32015,18.35648 l 2.967,-2.88128"
       id="path1322-8" />
  </g>
  <g
     id="points"
     transform="translate(-223.25,-40.250002)">
    <circle
       class="28.449798919939386|-17.042010051327626"
       cx="90.900002"
       cy="812.59998"
       id="0"
       r="0" />
    <circle
       class="34.91028065897241|-5.789853480226222"
       cx="545.5"
       cy="505.60001"
       id="1"
       r="0" />
    <circle
       class="42.98588283276368|3.2118717766549025"
       cx="909.09998"
       cy="85.300003"
       id="2"
       r="0" />
  </g>
  <g
     id="label_points"
     transform="translate(-223.25,-40.250002)">
    <circle
       class="Spain"
       cx="639.40002"
       cy="241.60001"
       id="circle8"
       r="0" />
  </g>
</svg>
