<svg id="Capa_1" width="263" data-name="Capa 1" xmlns="http://www.w3.org/2000/svg" xmlns:xlink="http://www.w3.org/1999/xlink" viewBox="0 0 263 92"><defs><style>.cls-1{fill:url(#degradado_bluetab_RGB);}</style><linearGradient id="degradado_bluetab_RGB" x1="7.78" y1="32.92" x2="255.22" y2="32.92" gradientUnits="userSpaceOnUse"><stop offset="0.22" stop-color="#212492"/><stop offset="0.33" stop-color="#25228f"/><stop offset="0.43" stop-color="#2f1a85"/><stop offset="0.44" stop-color="#311984"/><stop offset="0.49" stop-color="#49137f"/><stop offset="0.54" stop-color="#5b0e7b"/><stop offset="0.54" stop-color="#5c0e7a"/><stop offset="0.59" stop-color="#8e1e5d"/><stop offset="0.64" stop-color="#b52b46"/><stop offset="0.69" stop-color="#d13435"/><stop offset="0.73" stop-color="#e2392b"/><stop offset="0.75" stop-color="#e83b27"/><stop offset="0.79" stop-color="#e6401f"/><stop offset="0.91" stop-color="#e24d0d"/><stop offset="1" stop-color="#e05206"/></linearGradient></defs><g id="bluetab_an_IBM_Company"><path id="an_IBM_Company" data-name="an IBM Company" d="M49.09,80.21a1.44,1.44,0,0,1-1.53-1.44h-.08a2.51,2.51,0,0,1-2.56,1.65c-1.87,0-3-1-3-2.68s1.2-2.59,3.77-2.59h1.75v-.87c0-1.26-.69-1.94-2.09-1.94a2.46,2.46,0,0,0-2.25,1.32l-.82-.77a3.34,3.34,0,0,1,3.13-1.73c2.13,0,3.4,1.11,3.4,3V79h1v1.2Zm-1.61-2.57V76.18H45.66c-1.56,0-2.26.48-2.26,1.34v.36c0,.87.68,1.37,1.75,1.37C46.5,79.25,47.48,78.55,47.48,77.64Zm4.42,2.57V71.36h1.37V72.8h.07a2.52,2.52,0,0,1,2.51-1.64c1.81,0,3,1.23,3,3.37v5.68H57.44V74.77c0-1.57-.68-2.38-2-2.38-1.09,0-2.16.55-2.16,1.68v6.14Zm12.85,0V79h1.68V69.44H64.75v-1.2h4.8v1.2H67.87V79h1.68v1.2Zm7.51-12h4.92a2.93,2.93,0,0,1,3.19,3.09,2.33,2.33,0,0,1-1.94,2.54V74a2.61,2.61,0,0,1,2.35,2.78,3.21,3.21,0,0,1-3.09,3.46H72.26Zm1.44,5.18H77a1.59,1.59,0,0,0,1.81-1.66v-.59A1.59,1.59,0,0,0,77,69.51H73.7Zm0,5.52h3.55a1.76,1.76,0,0,0,2-1.85v-.58a1.76,1.76,0,0,0-2-1.86H73.7Zm9.84-10.7h1.92l3.43,6.45H89l3.44-6.45h1.85v12h-1.4V70.13h-.09l-1,2-2.86,5.22L86,72.13l-1-2H85V80.21H83.54Zm16.86,6.05c0-4,1.8-6.25,4.81-6.25a4.24,4.24,0,0,1,4.12,2.62l-1.17.7a3,3,0,0,0-3-2c-2,0-3.27,1.63-3.27,4.08v1.79c0,2.45,1.22,3.94,3.27,3.94A3.12,3.12,0,0,0,108.27,77l1.14.72a4.4,4.4,0,0,1-4.2,2.73C102.2,80.42,100.4,78.29,100.4,74.29Zm10.54,1.5c0-2.82,1.63-4.63,4-4.63s4,1.81,4,4.63-1.63,4.63-4,4.63S110.94,78.6,110.94,75.79Zm6.52.63V75.15c0-1.87-1-2.78-2.52-2.78s-2.52.91-2.52,2.78v1.27c0,1.87,1,2.78,2.52,2.78S117.46,78.29,117.46,76.42Zm3.82,3.79V71.36h1.37V72.8h.07a2.38,2.38,0,0,1,2.38-1.64,2.72,2.72,0,0,1,2.71,1.8h0a2.64,2.64,0,0,1,2.69-1.8c1.8,0,2.88,1.23,2.88,3.37v5.68h-1.37V74.77c0-1.56-.6-2.38-1.94-2.38-1.08,0-2.07.55-2.07,1.68v6.14h-1.38V74.77c0-1.57-.6-2.38-1.9-2.38-1.08,0-2.11.55-2.11,1.68v6.14Zm15.06-8.85h1.37V72.8h.07a2.58,2.58,0,0,1,2.59-1.64c2.21,0,3.6,1.8,3.6,4.63s-1.39,4.63-3.6,4.63a2.66,2.66,0,0,1-2.59-1.65h-.07v4.87h-1.37Zm6.15,5.18V75a2.41,2.41,0,0,0-2.5-2.64c-1.25,0-2.28.72-2.28,1.7v3.29c0,1.15,1,1.8,2.28,1.8A2.41,2.41,0,0,0,142.49,76.54Zm10.31,3.67a1.43,1.43,0,0,1-1.53-1.44h-.08a2.51,2.51,0,0,1-2.56,1.65c-1.87,0-3-1-3-2.68s1.2-2.59,3.78-2.59h1.75v-.87c0-1.26-.69-1.94-2.1-1.94a2.46,2.46,0,0,0-2.24,1.32l-.83-.77a3.36,3.36,0,0,1,3.14-1.73c2.13,0,3.4,1.11,3.4,3V79h1v1.2Zm-1.61-2.57V76.18h-1.82c-1.56,0-2.27.48-2.27,1.34v.36c0,.87.69,1.37,1.75,1.37C150.21,79.25,151.19,78.55,151.19,77.64Zm4.42,2.57V71.36H157V72.8h.07a2.51,2.51,0,0,1,2.5-1.64c1.82,0,3,1.23,3,3.37v5.68h-1.37V74.77c0-1.57-.69-2.38-2-2.38-1.1,0-2.16.55-2.16,1.68v6.14Zm15.14-8.85h1.36l-4,10.91c-.39,1.06-.75,1.37-2,1.37h-.71v-1.2h1.39l.67-1.89-3.31-9.19h1.37l2.13,6,.41,1.44h.09l.48-1.44Z"/><path id="_bluetab" data-name="/bluetab" class="cls-1" d="M116.08,20.84v20a10.39,10.39,0,0,1-.81,4.67,6.24,6.24,0,0,1-11.51.09,10.69,10.69,0,0,1-.81-4.67V25.5s0,0,0,0a4.63,4.63,0,0,0-4.63-4.63H93.55V39c0,.26,0,.52,0,.78a25.61,25.61,0,0,0,1,6.88A14.22,14.22,0,0,0,97.36,52a11.74,11.74,0,0,0,1.1,1.13,16.24,16.24,0,0,0,22.1,0A11.84,11.84,0,0,0,121.67,52a14.36,14.36,0,0,0,2.81-5.4,26.43,26.43,0,0,0,1-6.88V25.47a4.63,4.63,0,0,0-4.63-4.63ZM196.8,49a3.88,3.88,0,0,1-1.26-3.23A4,4,0,0,1,197.6,42a12.79,12.79,0,0,1,4-1.19l2-.37a14.53,14.53,0,0,0,2.34-.59,10.63,10.63,0,0,0,1.69-.84v3.23q-.11,4.36-2.5,6A9.08,9.08,0,0,1,199.85,50a4.77,4.77,0,0,1-3-1m-7.55-24.28a13.62,13.62,0,0,0-2.61,7.64h8.94a6.67,6.67,0,0,1,1.32-3.25q1.38-1.63,4.71-1.63a9.71,9.71,0,0,1,4.5.83,3.12,3.12,0,0,1,1.53,3,2.79,2.79,0,0,1-2,2.63,14.52,14.52,0,0,1-3.7.81l-3.17.39c-12,1.79-12.43,8.89-12.43,11.74,0,7.93,9.71,10.63,14.76,10.63A19.4,19.4,0,0,0,210.65,55a14.08,14.08,0,0,0,6.19-11.24V31q0-6.4-4.54-8.71A22.56,22.56,0,0,0,201.92,20q-9,0-12.67,4.68m-48.36,4.88a7.36,7.36,0,0,1,5.53-2,8.15,8.15,0,0,1,5.5,1.91,7.72,7.72,0,0,1,2.47,5.6h-16a9.65,9.65,0,0,1,2.46-5.49m-7.14-4.75q-4.87,4.92-4.88,14.12,0,9.82,5.41,14.19a19.33,19.33,0,0,0,12.48,4.36q8.56,0,13.33-5.17a11.56,11.56,0,0,0,3.43-6.41H156.3a4.21,4.21,0,0,0-3.23,1.5h0a7.16,7.16,0,0,1-.9.92A7.88,7.88,0,0,1,147,50a9.42,9.42,0,0,1-5.11-1.34c-2.32-1.43-3.56-3.92-3.7-7.47H164a44.72,44.72,0,0,0-.3-7,17.45,17.45,0,0,0-2.82-7.33,14.51,14.51,0,0,0-6.13-5.24,20.11,20.11,0,0,0-8.33-1.66,17.1,17.1,0,0,0-12.67,4.91m33.94-13.52V49.58a6.75,6.75,0,0,0,1.55,4.9q2.41,2.51,9,2.28l4.38-.16V49.67c-.3,0-.61,0-.92,0l-.9,0c-1.88,0-3-.18-3.38-.54s-.55-1.26-.55-2.71V27.77h5.75v-2a4.63,4.63,0,0,0-4.4-4.62h-1.35V15.91a4.63,4.63,0,0,0-4.63-4.62ZM53.44,46.83a13.82,13.82,0,0,1-2.12-7.9,17.78,17.78,0,0,1,1-6.6,7.24,7.24,0,0,1,7.27-4.8,7.13,7.13,0,0,1,7.17,4.9,18,18,0,0,1,1,6.54,13.77,13.77,0,0,1-2.08,8,6.69,6.69,0,0,1-5.84,3,7.24,7.24,0,0,1-6.45-3.13M42.32,8.43V38.36c0,.2,0,.39,0,.59q0,9.82,5.4,14.19a17.87,17.87,0,0,0,11.65,4.34,19.24,19.24,0,0,0,12.16-4.34Q76.93,48.77,76.92,39q0-9.2-4.88-14.12a17.1,17.1,0,0,0-12.67-4.91h0c-3,0-6.36,1.5-7.75,3.74V13A4.62,4.62,0,0,0,47,8.43Zm189.42,38.4a13.82,13.82,0,0,1-2.11-7.9,18,18,0,0,1,1-6.6,7.24,7.24,0,0,1,7.27-4.8,7.13,7.13,0,0,1,7.17,4.9,18,18,0,0,1,1,6.54,13.77,13.77,0,0,1-2.08,8,6.68,6.68,0,0,1-5.83,3,7.25,7.25,0,0,1-6.46-3.13M220.62,8.43V38.36c0,.2,0,.39,0,.59q0,9.82,5.41,14.19a17.85,17.85,0,0,0,11.64,4.34,19.27,19.27,0,0,0,12.17-4.34q5.4-4.37,5.4-14.19,0-9.2-4.88-14.12a17.08,17.08,0,0,0-12.67-4.91h0c-3,0-6.35,1.5-7.74,3.74V13a4.63,4.63,0,0,0-4.63-4.52ZM29.08,8.4h0a4.75,4.75,0,0,0-4.38,3L7.78,56.27H13.7a4.73,4.73,0,0,0,4.08-2.35L35,8.4Zm51.51,0V56.27h9.27V13.06a4.63,4.63,0,0,0-4.63-4.63,3.1,3.1,0,0,1-.62-.07Z"/></g></svg>