<?xml version="1.0" encoding="UTF-8"?>
<svg id="Capa_1" data-name="Capa 1" xmlns="http://www.w3.org/2000/svg" version="1.1" viewBox="0 0 447.9 272.7">
  <defs>
    <style>
      .cls-1 {
        fill-rule: evenodd;
      }

      .cls-1, .cls-2 {
        fill: #003764;
        stroke-width: 0px;
      }
    </style>
  </defs>
  <path class="cls-1" d="M178.7,68.7l-54.1,64.1,39.8,47.4,1,1c6.3-11.2,13.5-26.5,13.5-46s-.2-66.5-.2-66.5ZM155.8,147.3c-8.6,0-15.5-7.4-15.5-16.6s7-16.6,15.5-16.6,15.5,7.4,15.5,16.6-6.9,16.6-15.5,16.6Z"/>
  <path class="cls-1" d="M60.1,56.2l51,60.3,50.7-60.3H60.1ZM111.1,95.7c-8.6,0-15.5-7.4-15.5-16.6s7-16.6,15.5-16.6,15.6,7.4,15.6,16.6-7,16.6-15.6,16.6Z"/>
  <path class="cls-1" d="M42.2,68.2s0,46.5,0,67,7.8,35.4,14.1,46.7l41.2-48.9-55.2-64.8ZM65.9,147.3c-8.6,0-15.5-7.4-15.5-16.6s7-16.6,15.5-16.6,15.6,7.4,15.6,16.6-7,16.6-15.6,16.6Z"/>
  <path class="cls-1" d="M111,149.1l-42.3,49.8c13.6,16.1,39.4,35.2,41.9,35.1,2.8-.1,28.8-19.6,42.4-35.9l-42-49ZM111.1,203.6c-8.6,0-15.5-7.4-15.5-16.6s7-16.6,15.5-16.6,15.5,7.4,15.5,16.6-7,16.6-15.5,16.6Z"/>
  <rect class="cls-2" x="208.7" y="56.3" width="15.4" height="107.1"/>
  <polygon class="cls-1" points="305.3 56.3 244.5 56.3 244.5 163.4 306.7 163.4 306.7 149.6 259.9 149.6 259.9 116.3 303.7 116.3 303.7 102.5 259.9 102.5 259.9 70.1 305.3 70.1 305.3 56.3"/>
  <path class="cls-1" d="M373.5,106.9v-.3c11.1-4.6,16.3-11.8,16.3-22.9s-9.9-27.3-33-27.3h-31.1v107.1h36.7c26.9,0,36.7-15.4,36.7-28.6.1-14.5-9.6-25-25.6-28ZM341.1,70.1h14.1c14.1,0,18.7,6.9,18.7,14.9,0,11.5-7.4,17.1-22.6,17.1h-10.2v-32ZM360.4,149.6h-19.3v-33.6h18.5c16.2,0,23.7,6.9,23.7,16.6,0,8-4.8,17-22.9,17Z"/>
  <rect class="cls-2" x="147" y="134.5" width="17.2" height="5"/>
  <path class="cls-1" d="M164.2,132.3s-1.2-2.6-1.2-3.7,0-1.1.4-1.3c.4-.2.6-.3,1.5,0,.1,0,.3-1,.8-1.5.4-.3,2.2-.5,2.2-.5l-3.7,7Z"/>
  <path class="cls-1" d="M155.7,132.2s-2.9-1.9-3.5-3.1c-.6-1.1-.6-1.2-.4-1.7.3-.5.5-.7,1.7-1,.1,0-.3-1.3,0-2.3.2-.6,2.2-2.1,2.2-2.1,0,0,2,1.5,2.2,2.1.3.9-.1,2.3,0,2.3,1.2.3,1.4.5,1.7,1s.3.6-.4,1.7c-.6,1.2-3.5,3.1-3.5,3.1h0Z"/>
  <path class="cls-1" d="M147,132.3s1.2-2.6,1.2-3.7,0-1.1-.4-1.3c-.4-.2-.6-.3-1.5,0-.1,0-.3-1-.8-1.5-.4-.3-2.2-.5-2.2-.5l3.7,7Z"/>
  <rect class="cls-2" x="102.4" y="82.9" width="17.2" height="5"/>
  <path class="cls-1" d="M119.6,80.6s-1.2-2.6-1.2-3.7,0-1.1.4-1.3.6-.3,1.5,0c0,0,.3-1,.8-1.5.4-.3,2.2-.5,2.2-.5,0,0-3.7,7-3.7,7Z"/>
  <path class="cls-1" d="M111.1,80.6s-2.9-1.9-3.5-3.1c-.6-1.1-.6-1.2-.4-1.7.3-.5.5-.7,1.7-1,0,0-.3-1.3,0-2.3.2-.6,2.2-2.1,2.2-2.1,0,0,2,1.5,2.2,2.1.3.9,0,2.3,0,2.3,1.2.3,1.4.5,1.7,1,.3.5.3.6-.4,1.7-.7,1.2-3.5,3.1-3.5,3.1h0Z"/>
  <path class="cls-1" d="M102.4,80.6s1.2-2.6,1.2-3.7,0-1.1-.4-1.3c-.4-.2-.6-.3-1.5,0,0,0-.3-1-.8-1.5-.4-.3-2.2-.5-2.2-.5,0,0,3.7,7,3.7,7Z"/>
  <rect class="cls-2" x="57.2" y="134.5" width="17.2" height="5"/>
  <path class="cls-1" d="M74.4,132.2s-1.2-2.6-1.2-3.7,0-1.1.4-1.3c.4-.2.6-.3,1.5,0,0,0,.3-1,.8-1.5.4-.3,2.2-.5,2.2-.5,0,.1-3.7,7-3.7,7Z"/>
  <path class="cls-1" d="M65.9,132.2s-2.9-1.9-3.5-3.1c-.6-1.1-.6-1.2-.4-1.7.3-.5.5-.7,1.7-1,0,0-.3-1.3,0-2.3.2-.6,2.2-2.1,2.2-2.1,0,0,2,1.5,2.2,2.1.3.9,0,2.3,0,2.3,1.2.3,1.4.5,1.7,1,.3.5.3.6-.4,1.7-.7,1.2-3.5,3.1-3.5,3.1h0Z"/>
  <path class="cls-1" d="M57.1,132.3s1.2-2.6,1.2-3.7,0-1.1-.4-1.3-.6-.3-1.5,0c0,0-.3-1-.8-1.5-.4-.3-2.2-.5-2.2-.5l3.7,7Z"/>
  <rect class="cls-2" x="102.3" y="190.7" width="17.2" height="5"/>
  <path class="cls-1" d="M119.5,188.5s-1.2-2.6-1.2-3.7,0-1.1.4-1.3.6-.3,1.5,0c0,0,.3-1,.8-1.5.4-.3,2.2-.5,2.2-.5,0,0-3.7,7-3.7,7Z"/>
  <path class="cls-1" d="M111,188.5s-2.9-1.9-3.5-3.1c-.6-1.1-.6-1.2-.4-1.7.3-.5.5-.7,1.7-1,0,0-.3-1.3,0-2.3.2-.6,2.2-2.1,2.2-2.1,0,0,2,1.5,2.2,2.1.3.9,0,2.3,0,2.3,1.2.3,1.4.5,1.7,1,.3.5.3.6-.4,1.7-.6,1.1-3.5,3.1-3.5,3.1h0Z"/>
  <path class="cls-1" d="M102.3,188.5s1.2-2.6,1.2-3.7,0-1.1-.4-1.3-.6-.3-1.5,0c0,0-.3-1-.8-1.5-.4-.3-2.2-.5-2.2-.5l3.7,7Z"/>
  <path class="cls-2" d="M399.2,199.8h-25.5v-10.6h25.5v10.6Z"/>
  <path class="cls-2" d="M399.2,226.1h-25.5v-10.6h25.5v10.6Z"/>
  <path class="cls-2" d="M234.4,199.8h-25.5v-10.6h25.5v10.6Z"/>
  <path class="cls-2" d="M234.4,226.1h-25.5v-10.6h25.5v10.6Z"/>
  <polygon class="cls-2" points="244.5 191.7 244.5 199.7 249.9 196.3 249.9 228.2 257.3 228.2 257.3 187.6 250.6 187.6 244.5 191.7"/>
  <path class="cls-2" d="M325.3,206.9c.9-.7,1.7-1.6,2.3-2.7.9-1.5,1.4-3.2,1.4-5v-.9c0-3.3-1.1-6.1-3.3-8.1-2.1-2-5-3-8.5-3s-6.4,1-8.5,3c-2.2,2-3.3,4.8-3.3,8.1v.9c0,1.7.5,3.4,1.4,4.9.6,1.1,1.4,2,2.3,2.7-1.2.9-2.1,2-2.9,3.4-1,1.8-1.6,3.8-1.6,5.9v.6c0,2.3.5,4.4,1.6,6.2s2.5,3.2,4.4,4.1c1.9,1,4.1,1.4,6.5,1.4s4.7-.5,6.5-1.4c1.9-1,3.4-2.4,4.4-4.1,1-1.8,1.6-3.8,1.6-6.2v-.6c0-2.1-.5-4.1-1.6-5.9-.6-1.3-1.6-2.4-2.7-3.3ZM312,216.1c0-1.5.5-2.7,1.4-3.6,1-.9,2.2-1.4,3.8-1.4s2.9.4,3.8,1.4c.9.9,1.4,2.1,1.4,3.6v.4c0,1.5-.5,2.7-1.4,3.6-1,.9-2.2,1.4-3.8,1.4s-2.9-.4-3.8-1.3c-.9-.9-1.4-2-1.4-3.5v-.6ZM321.6,199.3c0,1.5-.4,2.6-1.2,3.4-.8.8-1.9,1.3-3.2,1.3s-2.4-.4-3.2-1.2c-.8-.9-1.2-2-1.2-3.4v-.4c0-1.4.4-2.5,1.2-3.3.8-.8,1.9-1.2,3.2-1.2s2.4.4,3.2,1.2c.8.8,1.2,1.9,1.2,3.3v.3Z"/>
  <path class="cls-2" d="M361,190.9c-2-2.3-4.9-3.5-8.5-3.5s-6.5,1.2-8.5,3.4-3,5.4-3,9.4.9,6.6,2.7,8.8c1.9,2.3,4.3,3.5,7.4,3.5s1.3-.1,1.9-.2l-8,16h8l8.3-17.1c.9-1.8,1.6-3.7,2-5.6.5-1.9.7-3.7.7-5.4,0-3.9-1-7.1-3-9.3ZM356.7,200c0,1.8-.4,3.3-1.1,4.2s-1.7,1.3-3.1,1.3-2.4-.4-3.1-1.3c-.8-1-1.1-2.4-1.1-4.2s.4-3.2,1.1-4.1c.7-.9,1.7-1.3,3.1-1.3s2.4.4,3.1,1.3c.7.9,1.1,2.3,1.1,4.1Z"/>
  <path class="cls-2" d="M282,187.4c-3.6,0-6.5,1.2-8.5,3.4s-3,5.4-3,9.4.9,6.6,2.7,8.8c1.9,2.3,4.3,3.5,7.4,3.5s1.3-.1,1.9-.2l-8,16h8l8.3-17.1c.9-1.8,1.6-3.7,2-5.6.5-1.9.7-3.7.7-5.4,0-4-1-7.2-3-9.5-2-2.1-4.9-3.3-8.5-3.3ZM286.2,200c0,1.8-.4,3.3-1.1,4.2s-1.7,1.3-3.1,1.3-2.4-.4-3.1-1.3c-.8-1-1.1-2.4-1.1-4.2s.4-3.2,1.1-4.1c.7-.9,1.7-1.3,3.1-1.3s2.4.4,3.1,1.3c.7.9,1.1,2.3,1.1,4.1Z"/>
</svg>